<?xml version="1.0" encoding="UTF-8" standalone="no"?>
<svg width="580px" height="177px" viewBox="0 0 580 177" version="1.1" xmlns="http://www.w3.org/2000/svg" xmlns:xlink="http://www.w3.org/1999/xlink">
    <!-- Generator: Sketch 3.7.2 (28276) - http://www.bohemiancoding.com/sketch -->
    <title>Group 2</title>
    <desc>Created with Sketch.</desc>
    <defs></defs>
    <g id="Page-1" stroke="none" stroke-width="1" fill="none" fill-rule="evenodd">
        <g id="Group-2">
            <rect id="Rectangle-1" fill="#000000" x="0" y="0" width="211" height="177" rx="18"></rect>
            <path d="M179,133.235001 L179,148 L31,148 L31,133 L52,133 L52,49.4264069 L41.6066017,59.8198052 L31,49.2132034 L52,28.2132034 L52,28 L67,28 L67,133 L99,133 L99,49.4264069 L88.6066017,59.8198052 L78,49.2132034 L99,28.2132034 L99,28 L114,28 L114,133 L164,133 L164,96 L127,96 L127,81 L164,81 L164,43 L127,43 L127,28 L171.419402,28 L179,28 L179,133.235001 Z" id="Combined-Shape" fill="#FFFFFF"></path>
            <path d="M319.279266,61.0940002 L256.072504,61.0940002 L256.072504,145.470001 L235,145.470001 L235,50.6007419 L235,40 L340.362518,40 L340.362518,40.0537418 L340.373266,40.0537418 L340.373266,145.416259 L319.279266,145.416259 L319.279266,61.0940002 Z" id="Rectangle-188-copy" fill="#000000" transform="translate(287.686633, 92.735001) rotate(-180.000000) translate(-287.686633, -92.735001) "></path>
            <path d="M440.279266,61.0940002 L377.072504,61.0940002 L377.072504,145.470001 L356,145.470001 L356,50.6007419 L356,40 L461.362518,40 L461.362518,40.0537418 L461.373266,40.0537418 L461.373266,145.416259 L440.279266,145.416259 L440.279266,61.0940002 Z" id="Rectangle-188-copy-2" fill="#000000" transform="translate(408.686633, 92.735001) rotate(-180.000000) translate(-408.686633, -92.735001) "></path>
            <path d="M537.228259,124.268517 L579.362518,124.268517 L579.362518,145.362518 L474,145.362518 L474,124.268517 L516.134259,124.268517 L516.134259,40 L537.228259,40 L537.228259,124.268517 Z" id="Rectangle-188-copy-6" fill="#000000" transform="translate(526.681259, 92.681259) rotate(-180.000000) translate(-526.681259, -92.681259) "></path>
        </g>
    </g>
</svg>